0
SECTION
2
HEADER
9
$INSUNITS
70
4
9
$ACADVER
1
AC1014
9
$HANDSEED
5
FFFF
0
ENDSEC
0
SECTION
2
TABLES
0
TABLE
2
VPORT
5
8
100
AcDbSymbolTable
0
ENDTAB
0
TABLE
2
LTYPE
5
5
100
AcDbSymbolTable
0
LTYPE
5
14
100
AcDbSymbolTableRecord
100
AcDbLinetypeTableRecord
2
BYBLOCK
70
0
0
LTYPE
5
15
100
AcDbSymbolTableRecord
100
AcDbLinetypeTableRecord
2
BYLAYER
70
0
0
ENDTAB
0
TABLE
2
LAYER
5
2
100
AcDbSymbolTable
70
2
0
LAYER
5
50
100
AcDbSymbolTableRecord
100
AcDbLayerTableRecord
2
0
70
0
6
CONTINUOUS
0
ENDTAB
0
TABLE
2
STYLE
5
3
100
AcDbSymbolTable
70
1
0
STYLE
5
11
100
AcDbSymbolTableRecord
100
AcDbTextStyleTableRecord
2
STANDARD
70
0
0
ENDTAB
0
TABLE
2
VIEW
5
6
100
AcDbSymbolTable
70
0
0
ENDTAB
0
TABLE
2
UCS
5
7
100
AcDbSymbolTable
70
0
0
ENDTAB
0
TABLE
2
APPID
5
9
100
AcDbSymbolTable
70
2
0
APPID
5
12
100
AcDbSymbolTableRecord
100
AcDbRegAppTableRecord
2
ACAD
70
0
0
ENDTAB
0
TABLE
2
DIMSTYLE
5
A
100
AcDbSymbolTable
70
1
0
ENDTAB
0
TABLE
2
BLOCK_RECORD
5
1
100
AcDbSymbolTable
70
1
0
BLOCK_RECORD
5
1F
100
AcDbSymbolTableRecord
100
AcDbBlockTableRecord
2
*MODEL_SPACE
0
BLOCK_RECORD
5
1B
100
AcDbSymbolTableRecord
100
AcDbBlockTableRecord
2
*PAPER_SPACE
0
ENDTAB
0
ENDSEC
0
SECTION
2
BLOCKS
0
BLOCK
5
20
100
AcDbEntity
100
AcDbBlockBegin
2
*MODEL_SPACE
0
ENDBLK
5
21
100
AcDbEntity
100
AcDbBlockEnd
0
BLOCK
5
1C
100
AcDbEntity
100
AcDbBlockBegin
2
*PAPER_SPACE
0
ENDBLK
5
1D
100
AcDbEntity
100
AcDbBlockEnd
0
ENDSEC
0
SECTION
2
ENTITIES
0
LWPOLYLINE
5
100
100
AcDbEntity
8
0
100
AcDbPolyline
90
4
70
1
43
0.0
10
141.45768777792469
20
-54.673984642435016
10
127.45770287808709
20
-54.673984642435023
10
127.45770287808709
20
-68.67432212625495
10
141.45768777792469
20
-68.67432212625495
0
LWPOLYLINE
5
101
100
AcDbEntity
8
0
100
AcDbPolyline
90
4
70
1
43
0.0
10
122.45954770586758
20
-35.673373791020715
10
108.45956280602999
20
-35.673373791020715
10
108.45956280602999
20
-49.673713966321465
10
122.45954770586758
20
-49.673713966321465
0
LWPOLYLINE
5
102
100
AcDbEntity
8
0
100
AcDbPolyline
90
35
70
1
43
0.0
10
67.967025177070767
20
-9.8014987961346609
42
0.41390372574158296
10
68.467087503080364
20
-9.3009071419827904
10
68.467087503080364
20
-8.0513682648191409
42
-0.41411034800254376
10
68.967467490570868
20
-7.5508119079573888
10
85.967827692206399
20
-7.5508119079573834
42
-0.41441978922492356
10
86.468031775278988
20
-8.0513682843323586
10
86.468031775278988
20
-9.3009071614960082
42
0.41411035527728401
10
86.968447040546394
20
-9.801498796134652
10
104.96716897428939
20
-9.8014987961346591
42
-0.41429629836287196
10
105.46723130029898
20
-10.301702394740673
10
105.46723130029898
20
-14.079849516145973
42
0.40536725685228109
10
105.92454043725397
20
-14.551228121835875
10
142.9676505866519
20
-14.551228121835873
42
-0.41293362769514474
10
143.46817035027556
20
-15.049564409117746
10
143.4681703502755
20
-70.301403946031201
42
-0.41444030712545921
10
142.96789499033227
20
-70.802066715564848
10
87.966667015590886
20
-70.802066715564848
42
0.20427528749681287
10
87.607569603912779
20
-70.955164702566307
10
77.747831391857304
20
-84.47514957290511
42
-0.20566406061176429
10
75.710901061080847
20
-85.682404873073992
10
40.284242803179367
20
-90.290603812901878
42
0.098992896206546291
10
38.798688341659883
20
-90.7939614325783
10
25.099058247044038
20
-98.711445229697006
42
-0.38570777995972472
10
23.172185935728105
20
-98.338876292137826
10
10.816673698860734
20
-76.8776051726513
42
-0.42715419244536584
10
11.190970892212286
20
-74.952708912073959
10
11.195909759445859
20
-74.949533805839863
10
29.971182951299085
20
-64.112647092107011
42
0.2680073514575439
10
30.47132863005924
20
-63.2464887555657
10
30.468864841924841
20
-12.801132887810473
42
-0.41582890228038916
10
30.966704829478839
20
-12.300541233658588
10
48.966273274434357
20
-12.300541233658585
42
0.41328578621917822
10
49.468064366944866
20
-11.800337635052587
10
49.468064366944844
20
-10.301737621379454
42
-0.41533147973140305
10
49.966398262888632
20
-9.8014987961346556
0
LWPOLYLINE
5
103
100
AcDbEntity
8
0
100
AcDbPolyline
90
4
70
1
43
0.0
10
127.45770287808709
20
-30.674158175373396
10
141.45768777792469
20
-30.674158175373396
10
141.45768777792469
20
-16.673823383034225
10
127.45770287808709
20
-16.673823383034225
0
SPLINE
5
104
100
AcDbEntity
8
0
100
AcDbSpline
70
4
71
3
72
8
73
4
74
0
42
0.000000001
43
0.0000000001
44
0.0000000001
40
0
40
0
40
0
40
0
40
1
40
1
40
1
40
1
41
1
41
1
41
1
41
1
10
35.216406945458509
20
-78.149651553407054
30
0
10
35.823890264614064
20
-78.149651553407054
30
0
10
36.316368039836519
20
-77.657173820239024
30
0
10
36.316368039836519
20
-77.049690459029122
30
0
0
SPLINE
5
105
100
AcDbEntity
8
0
100
AcDbSpline
70
4
71
3
72
8
73
4
74
0
42
0.000000001
43
0.0000000001
44
0.0000000001
40
0
40
0
40
0
40
0
40
1
40
1
40
1
40
1
41
1
41
1
41
1
41
1
10
124.96624637914508
20
-34.399387358620039
30
0
10
125.57372974035501
20
-34.399387358620039
30
0
10
126.06620747352308
20
-33.907262377651854
30
0
10
126.06620747352308
20
-33.299426264242022
30
0
0
SPLINE
5
106
100
AcDbEntity
8
0
100
AcDbSpline
70
4
71
3
72
8
73
4
74
0
42
0.000000001
43
0.0000000001
44
0.0000000001
40
0
40
0
40
0
40
0
40
1
40
1
40
1
40
1
41
1
41
1
41
1
41
1
10
126.06620747352308
20
-33.299426264242022
30
0
10
126.06620747352308
20
-32.691942945086453
30
0
10
125.57372974035501
20
-32.199465169864027
30
0
10
124.96624637914508
20
-32.199465169864027
30
0
0
LINE
5
107
100
AcDbEntity
8
0
100
AcDbLine
10
105.46652572524785
20
-14.053070614776592
30
0
11
105.46652572524785
21
-14.052717862576696
31
0
0
SPLINE
5
108
100
AcDbEntity
8
0
100
AcDbSpline
70
4
71
3
72
8
73
4
74
0
42
0.000000001
43
0.0000000001
44
0.0000000001
40
0
40
0
40
0
40
0
40
1
40
1
40
1
40
1
41
1
41
1
41
1
41
1
10
124.96628164615606
20
-50.949709434096029
30
0
10
124.35879832700051
20
-50.949709434096029
30
0
10
123.86632055177806
20
-51.442187209318462
30
0
10
123.86632055177806
20
-52.049670528474046
30
0
0
LWPOLYLINE
5
109
100
AcDbEntity
8
0
100
AcDbPolyline
90
4
70
1
43
0.0
10
127.45770287808709
20
-35.67407895898539
10
127.45770287808709
20
-49.674419134286154
10
141.45768777792469
20
-49.674419134286154
10
141.45768777792469
20
-35.674078958985405
0
SPLINE
5
110
100
AcDbEntity
8
0
100
AcDbSpline
70
4
71
3
72
8
73
4
74
0
42
0.000000001
43
0.0000000001
44
0.0000000001
40
0
40
0
40
0
40
0
40
1
40
1
40
1
40
1
41
1
41
1
41
1
41
1
10
126.06624274053404
20
-52.049670528474046
30
0
10
126.06624274053404
20
-51.442187209318462
30
0
10
125.5737649653116
20
-50.949709434096029
30
0
10
124.96628164615606
20
-50.949709434096029
30
0
0
SPLINE
5
111
100
AcDbEntity
8
0
100
AcDbSpline
70
4
71
3
72
8
73
4
74
0
42
0.000000001
43
0.0000000001
44
0.0000000001
40
0
40
0
40
0
40
0
40
1
40
1
40
1
40
1
41
1
41
1
41
1
41
1
10
48.966273268378501
20
-30.649712463127837
30
0
10
49.573756587534064
20
-30.649712463127837
30
0
10
50.066234362756525
20
-30.157234729959779
30
0
10
50.066234362756525
20
-29.549751368749817
30
0
0
SPLINE
5
112
100
AcDbEntity
8
0
100
AcDbSpline
70
4
71
3
72
8
73
4
74
0
42
0.000000001
43
0.0000000001
44
0.0000000001
40
0
40
0
40
0
40
0
40
1
40
1
40
1
40
1
41
1
41
1
41
1
41
1
10
124.96624637914508
20
-32.199465169864027
30
0
10
124.35876305998953
20
-32.199465169864027
30
0
10
123.86628528476706
20
-32.691942945086453
30
0
10
123.86628528476706
20
-33.299426264242022
30
0
0
LWPOLYLINE
5
113
100
AcDbEntity
8
0
100
AcDbPolyline
90
4
70
1
43
0.0
10
108.45956280602999
20
-30.673453007408717
10
122.45954770586758
20
-30.673453007408717
10
122.45954770586758
20
-16.673112832107982
10
108.45956280602999
20
-16.673112832107986
0
SPLINE
5
114
100
AcDbEntity
8
0
100
AcDbSpline
70
4
71
3
72
8
73
4
74
0
42
0.000000001
43
0.0000000001
44
0.0000000001
40
0
40
0
40
0
40
0
40
1
40
1
40
1
40
1
41
1
41
1
41
1
41
1
10
80.61625996636289
20
-69.299586208337274
30
0
10
80.61625996636289
20
-69.907422321747106
30
0
10
81.108737741585344
20
-70.399547302715249
30
0
10
81.716221060740907
20
-70.399547302715249
30
0
0
SPLINE
5
115
100
AcDbEntity
8
0
100
AcDbSpline
70
4
71
3
72
8
73
4
74
0
42
0.000000001
43
0.0000000001
44
0.0000000001
40
0
40
0
40
0
40
0
40
1
40
1
40
1
40
1
41
1
41
1
41
1
41
1
10
123.86628528476706
20
-33.299426264242022
30
0
10
123.86628528476706
20
-33.907262377651854
30
0
10
124.35876305998953
20
-34.399387358620039
30
0
10
124.96624637914508
20
-34.399387358620039
30
0
0
SPLINE
5
116
100
AcDbEntity
8
0
100
AcDbSpline
70
4
71
3
72
8
73
4
74
0
42
0.000000001
43
0.0000000001
44
0.0000000001
40
0
40
0
40
0
40
0
40
1
40
1
40
1
40
1
41
1
41
1
41
1
41
1
10
23.172185935728091
20
-98.338876292137854
30
0
10
23.171127510910875
20
-98.337465199229527
30
0
10
23.170069254311198
20
-98.335701312066917
30
0
10
23.169010829493978
20
-98.334290177104208
30
0
0
SPLINE
5
117
100
AcDbEntity
8
0
100
AcDbSpline
70
4
71
3
72
8
73
4
74
0
42
0.000000001
43
0.0000000001
44
0.0000000001
40
0
40
0
40
0
40
0
40
1
40
1
40
1
40
1
41
1
41
1
41
1
41
1
10
81.716221060740907
20
-70.399547302715249
30
0
10
82.323704379896455
20
-70.399547302715249
30
0
10
82.816182155118909
20
-69.907422321747106
30
0
10
82.816182155118909
20
-69.299586208337274
30
0
0
LWPOLYLINE
5
118
100
AcDbEntity
8
0
100
AcDbPolyline
90
4
70
1
43
0.0
10
65.455949540232183
20
-25.924362083723338
10
65.455949540232183
20
-11.924027291384158
10
51.455964640394583
20
-11.924027291384167
10
51.455964640394583
20
-25.924362083723338
0
LWPOLYLINE
5
119
100
AcDbEntity
8
0
100
AcDbPolyline
90
4
70
1
43
0.0
10
70.457280659773559
20
-28.54973471401188
10
70.457280659773559
20
-42.54971961384949
10
84.457265559611173
20
-42.54971961384949
10
84.457265559611173
20
-28.54973471401188
0
SPLINE
5
120
100
AcDbEntity
8
0
100
AcDbSpline
70
4
71
3
72
8
73
4
74
0
42
0.000000001
43
0.0000000001
44
0.0000000001
40
0
40
0
40
0
40
0
40
1
40
1
40
1
40
1
41
1
41
1
41
1
41
1
10
47.866312174000498
20
-29.549751368749817
30
0
10
47.866312174000498
20
-30.157234729959779
30
0
10
48.358789949222967
20
-30.649712463127837
30
0
10
48.966273268378501
20
-30.649712463127837
30
0
0
LWPOLYLINE
5
121
100
AcDbEntity
8
0
100
AcDbPolyline
90
4
70
1
43
0.0
10
108.45956280602999
20
-68.673616958290296
10
122.45954770586758
20
-68.673616958290296
10
122.45954770586758
20
-54.673279474470355
10
108.45956280602999
20
-54.673279474470355
0
SPLINE
5
122
100
AcDbEntity
8
0
100
AcDbSpline
70
4
71
3
72
8
73
4
74
0
42
0.000000001
43
0.0000000001
44
0.0000000001
40
0
40
0
40
0
40
0
40
1
40
1
40
1
40
1
41
1
41
1
41
1
41
1
10
50.066234362756525
20
-29.549751368749817
30
0
10
50.066234362756525
20
-28.942268049594269
30
0
10
49.573756587534064
20
-28.449790274371818
30
0
10
48.966273268378501
20
-28.449790274371818
30
0
0
SPLINE
5
123
100
AcDbEntity
8
0
100
AcDbSpline
70
4
71
3
72
8
73
4
74
0
42
0.000000001
43
0.0000000001
44
0.0000000001
40
0
40
0
40
0
40
0
40
1
40
1
40
1
40
1
41
1
41
1
41
1
41
1
10
34.116445851080492
20
-77.049690459029122
30
0
10
34.116445851080492
20
-77.657173820239024
30
0
10
34.608923626302953
20
-78.149651553407054
30
0
10
35.216406945458509
20
-78.149651553407054
30
0
0
LWPOLYLINE
5
124
100
AcDbEntity
8
0
100
AcDbPolyline
90
4
70
1
43
0.0
10
51.924914680194689
20
-70.71955196310779
10
38.401884398119336
20
-74.342932395780977
10
42.025264830792615
20
-87.865962677856388
10
55.54829511286794
20
-84.242582245183101
0
LWPOLYLINE
5
125
100
AcDbEntity
8
0
100
AcDbPolyline
90
4
70
1
43
0.0
10
65.455949540232183
20
-30.924277484373771
10
51.455964640394583
20
-30.924277484373786
10
51.455964640394583
20
-44.924617659674489
10
65.455949540232183
20
-44.924617659674489
0
LWPOLYLINE
5
126
100
AcDbEntity
8
0
100
AcDbPolyline
90
4
70
1
43
0.0
10
84.457265559611173
20
-23.549813930399871
10
84.457265559611173
20
-9.5498290305622628
10
70.457280659773559
20
-9.5498290305622646
10
70.457280659773559
20
-23.549813930399871
0
LWPOLYLINE
5
127
100
AcDbEntity
8
0
100
AcDbPolyline
90
4
70
1
43
0.0
10
46.454283628351654
20
-33.309408540129077
10
32.45429872851404
20
-33.309408540129084
10
32.45429872851404
20
-47.309393439966662
10
46.454283628351654
20
-47.309393439966662
0
LWPOLYLINE
5
128
100
AcDbEntity
8
0
100
AcDbPolyline
90
4
70
1
43
0.0
10
32.45429872851404
20
-66.309301814897054
10
46.454283628351654
20
-66.309301814897054
10
46.454283628351654
20
-52.309314223578703
10
32.45429872851404
20
-52.309314223578703
0
LWPOLYLINE
5
129
100
AcDbEntity
8
0
100
AcDbPolyline
90
4
70
1
43
0.0
10
89.458957337577232
20
-49.928769451074622
10
89.458951954615657
20
-63.928757042393023
10
103.45894223741483
20
-63.928757042393023
10
103.45894223741483
20
-49.928769451074622
0
LWPOLYLINE
5
130
100
AcDbEntity
8
0
100
AcDbPolyline
90
4
70
1
43
0.0
10
60.937577732076036
20
-83.582358812066417
10
74.937562631913622
20
-83.582358812066417
10
74.937562631913622
20
-69.58237122074803
10
60.937577732076036
20
-69.58237122074803
0
LWPOLYLINE
5
131
100
AcDbEntity
8
0
100
AcDbPolyline
90
4
70
1
43
0.0
10
65.455949540232183
20
-49.924183167823415
10
51.455964640394583
20
-49.924183167823408
10
51.455964640394583
20
-63.924523343124129
10
65.455949540232183
20
-63.924523343124129
0
LWPOLYLINE
5
132
100
AcDbEntity
8
0
100
AcDbPolyline
90
4
70
1
43
0.0
10
84.457265559611173
20
-47.549990289963027
10
70.457280659773559
20
-47.549990289963034
10
70.457280659773559
20
-61.549975189800641
10
84.457265559611173
20
-61.549975189800641
0
LWPOLYLINE
5
133
100
AcDbEntity
8
0
100
AcDbPolyline
90
4
70
1
43
0.0
10
32.45429872851404
20
-28.309137864015511
10
46.454283628351654
20
-28.309137864015511
10
46.454283628351654
20
-14.309152964177905
10
32.45429872851404
20
-14.309152964177905
0
SPLINE
5
134
100
AcDbEntity
8
0
100
AcDbSpline
70
4
71
3
72
8
73
4
74
0
42
0.000000001
43
0.0000000001
44
0.0000000001
40
0
40
0
40
0
40
0
40
1
40
1
40
1
40
1
41
1
41
1
41
1
41
1
10
36.316368039836519
20
-77.049690459029122
30
0
10
36.316368039836519
20
-76.442207139873503
30
0
10
35.823890264614064
20
-75.949729364651105
30
0
10
35.216406945458509
20
-75.949729364651105
30
0
0
SPLINE
5
135
100
AcDbEntity
8
0
100
AcDbSpline
70
4
71
3
72
8
73
4
74
0
42
0.000000001
43
0.0000000001
44
0.0000000001
40
0
40
0
40
0
40
0
40
1
40
1
40
1
40
1
41
1
41
1
41
1
41
1
10
48.966273268378501
20
-28.449790274371818
30
0
10
48.358789949222967
20
-28.449790274371818
30
0
10
47.866312174000498
20
-28.942268049594269
30
0
10
47.866312174000498
20
-29.549751368749817
30
0
0
SPLINE
5
136
100
AcDbEntity
8
0
100
AcDbSpline
70
4
71
3
72
8
73
4
74
0
42
0.000000001
43
0.0000000001
44
0.0000000001
40
0
40
0
40
0
40
0
40
1
40
1
40
1
40
1
41
1
41
1
41
1
41
1
10
35.216406945458509
20
-75.949729364651105
30
0
10
34.608923626302953
20
-75.949729364651105
30
0
10
34.116445851080492
20
-76.442207139873503
30
0
10
34.116445851080492
20
-77.049690459029122
30
0
0
SPLINE
5
137
100
AcDbEntity
8
0
100
AcDbSpline
70
4
71
3
72
8
73
4
74
0
42
0.000000001
43
0.0000000001
44
0.0000000001
40
0
40
0
40
0
40
0
40
1
40
1
40
1
40
1
41
1
41
1
41
1
41
1
10
123.86632055177806
20
-52.049670528474046
30
0
10
123.86632055177806
20
-52.657153889683968
30
0
10
124.35879832700051
20
-53.149631622852027
30
0
10
124.96628164615606
20
-53.149631622852027
30
0
0
SPLINE
5
138
100
AcDbEntity
8
0
100
AcDbSpline
70
4
71
3
72
8
73
4
74
0
42
0.000000001
43
0.0000000001
44
0.0000000001
40
0
40
0
40
0
40
0
40
1
40
1
40
1
40
1
41
1
41
1
41
1
41
1
10
81.716221060740907
20
-68.199625113959257
30
0
10
81.108737741585344
20
-68.199625113959257
30
0
10
80.61625996636289
20
-68.692102889181683
30
0
10
80.61625996636289
20
-69.299586208337274
30
0
0
SPLINE
5
139
100
AcDbEntity
8
0
100
AcDbSpline
70
4
71
3
72
8
73
4
74
0
42
0.000000001
43
0.0000000001
44
0.0000000001
40
0
40
0
40
0
40
0
40
1
40
1
40
1
40
1
41
1
41
1
41
1
41
1
10
124.96628164615606
20
-53.149631622852027
30
0
10
125.5737649653116
20
-53.149631622852027
30
0
10
126.06624274053404
20
-52.657153889683968
30
0
10
126.06624274053404
20
-52.049670528474046
30
0
0
SPLINE
5
140
100
AcDbEntity
8
0
100
AcDbSpline
70
4
71
3
72
8
73
4
74
0
42
0.000000001
43
0.0000000001
44
0.0000000001
40
0
40
0
40
0
40
0
40
1
40
1
40
1
40
1
41
1
41
1
41
1
41
1
10
82.816182155118909
20
-69.299586208337274
30
0
10
82.816182155118909
20
-68.692102889181683
30
0
10
82.323704379896455
20
-68.199625113959257
30
0
10
81.716221060740907
20
-68.199625113959257
30
0
0
LWPOLYLINE
5
141
100
AcDbEntity
8
0
100
AcDbPolyline
90
4
70
1
43
0.0
10
89.458957337577232
20
-11.928602808712279
10
89.458951954615657
20
-25.928593091511445
10
103.45894223741483
20
-25.928593091511445
10
103.45894223741483
20
-11.92860280871227
0
LWPOLYLINE
5
142
100
AcDbEntity
8
0
100
AcDbPolyline
90
4
70
1
43
0.0
10
15.154675912772934
20
-80.470435545765241
10
22.154845327553115
20
-92.595054504073488
10
34.279111701879039
20
-85.594885089293342
10
27.279295207516302
20
-73.470619387837587
0
LWPOLYLINE
5
143
100
AcDbEntity
8
0
100
AcDbPolyline
90
4
70
1
43
0.0
10
89.458951954615657
20
-44.928848667462624
10
103.45894223741483
20
-44.928848667462624
10
103.45894223741483
20
-30.928863767625003
10
89.458957337577232
20
-30.928863767625003
0
LWPOLYLINE
5
144
100
AcDbEntity
8
0
100
AcDbPolyline
90
35
70
1
43
0.0
10
-38.527870894960785
20
-11.800337635052587
42
0.41328578621917822
10
-38.026079802450276
20
-12.300541233658588
10
-20.026511357494758
20
-12.300541233658587
42
-0.41582890228038916
10
-19.52867136994076
20
-12.801132887810471
10
-19.531135158075163
20
-63.2464887555657
42
0.2680073514575439
10
-19.030989479315004
20
-64.112647092107011
10
-0.25571628746177799
20
-74.949533805839863
10
-0.25077742022820509
20
-74.952708912073959
42
-0.42715419244536584
10
0.12351977312334617
20
-76.8776051726513
10
-12.231992463744021
20
-98.338876292137826
42
-0.38570777995972472
10
-14.158864775059957
20
-98.711445229697006
10
-27.858494869675802
20
-90.7939614325783
42
0.098992896206546291
10
-29.34404933119529
20
-90.290603812901878
10
-64.770707589096759
20
-85.682404873073992
42
-0.20566406061176429
10
-66.80763791987323
20
-84.47514957290511
10
-76.667376131928705
20
-70.955164702566307
42
0.20427528749681287
10
-77.026473543606798
20
-70.802066715564848
10
-132.02770151834818
20
-70.802066715564848
42
-0.41444030712545921
10
-132.52797687829141
20
-70.301403946031201
10
-132.52797687829147
20
-15.049564409117746
42
-0.41293362769514474
10
-132.02745711466781
20
-14.551228121835873
10
-94.984346965269907
20
-14.551228121835871
42
0.40536725685228109
10
-94.527037828314903
20
-14.079849516145973
10
-94.527037828314903
20
-10.301702394740673
42
-0.41429629836287196
10
-94.026975502305305
20
-9.8014987961346591
10
-76.028253568562306
20
-9.8014987961346538
42
0.41411035527728401
10
-75.527838303294899
20
-9.3009071614960082
10
-75.527838303294899
20
-8.0513682843323586
42
-0.41441978922492356
10
-75.027634220222325
20
-7.5508119079573888
10
-58.027274018586795
20
-7.5508119079573852
42
-0.41411034800254376
10
-57.526894031096283
20
-8.0513682648191409
10
-57.526894031096283
20
-9.3009071419827904
42
0.41390372574158296
10
-57.026831705086693
20
-9.8014987961346609
10
-39.026204790904551
20
-9.8014987961346538
42
-0.41533147973140305
10
-38.527870894960763
20
-10.301737621379454
0
LWPOLYLINE
5
145
100
AcDbEntity
8
0
100
AcDbPolyline
90
4
70
1
43
0.0
10
-130.5174943059406
20
-54.673984642435016
10
-116.517509406103
20
-54.673984642435023
10
-116.517509406103
20
-68.67432212625495
10
-130.5174943059406
20
-68.67432212625495
0
SPLINE
5
146
100
AcDbEntity
8
0
100
AcDbSpline
70
4
71
3
72
8
73
4
74
0
42
0.000000001
43
0.0000000001
44
0.0000000001
40
0
40
0
40
0
40
0
40
1
40
1
40
1
40
1
41
1
41
1
41
1
41
1
10
-114.02605290716099
20
-34.399387358620039
30
0
10
-114.63353626837092
20
-34.399387358620039
30
0
10
-115.12601400153899
20
-33.907262377651854
30
0
10
-115.12601400153899
20
-33.299426264242022
30
0
0
LWPOLYLINE
5
147
100
AcDbEntity
8
0
100
AcDbPolyline
90
4
70
1
43
0.0
10
-54.515756068248109
20
-30.924277484373771
10
-40.51577116841051
20
-30.924277484373786
10
-40.51577116841051
20
-44.924617659674489
10
-54.515756068248109
20
-44.924617659674489
0
SPLINE
5
148
100
AcDbEntity
8
0
100
AcDbSpline
70
4
71
3
72
8
73
4
74
0
42
0.000000001
43
0.0000000001
44
0.0000000001
40
0
40
0
40
0
40
0
40
1
40
1
40
1
40
1
41
1
41
1
41
1
41
1
10
-71.875988683134835
20
-69.299586208337274
30
0
10
-71.875988683134835
20
-68.692102889181683
30
0
10
-71.383510907912381
20
-68.199625113959257
30
0
10
-70.776027588756833
20
-68.199625113959257
30
0
0
LWPOLYLINE
5
149
100
AcDbEntity
8
0
100
AcDbPolyline
90
4
70
1
43
0.0
10
-130.5174943059406
20
-16.673823383034225
10
-116.517509406103
20
-16.673823383034225
10
-116.517509406103
20
-30.674158175373396
10
-130.5174943059406
20
-30.674158175373396
0
LWPOLYLINE
5
150
100
AcDbEntity
8
0
100
AcDbPolyline
90
4
70
1
43
0.0
10
-78.518763865593144
20
-11.928602808712279
10
-78.518758482631569
20
-25.928593091511445
10
-92.518748765430757
20
-25.928593091511445
10
-92.518748765430757
20
-11.92860280871227
0
SPLINE
5
151
100
AcDbEntity
8
0
100
AcDbSpline
70
4
71
3
72
8
73
4
74
0
42
0.000000001
43
0.0000000001
44
0.0000000001
40
0
40
0
40
0
40
0
40
1
40
1
40
1
40
1
41
1
41
1
41
1
41
1
10
-112.92612707979399
20
-52.049670528474046
30
0
10
-112.92612707979399
20
-52.657153889683968
30
0
10
-113.41860485501643
20
-53.149631622852027
30
0
10
-114.02608817417197
20
-53.149631622852027
30
0
0
LWPOLYLINE
5
152
100
AcDbEntity
8
0
100
AcDbPolyline
90
4
70
1
43
0.0
10
-97.519369334045919
20
-16.673112832107986
10
-97.519369334045919
20
-30.673453007408717
10
-111.5193542338835
20
-30.673453007408717
10
-111.5193542338835
20
-16.673112832107982
0
LWPOLYLINE
5
153
100
AcDbEntity
8
0
100
AcDbPolyline
90
4
70
1
43
0.0
10
-78.518758482631569
20
-63.928757042393023
10
-92.518748765430757
20
-63.928757042393023
10
-92.518748765430757
20
-49.928769451074622
10
-78.518763865593144
20
-49.928769451074622
0
LWPOLYLINE
5
154
100
AcDbEntity
8
0
100
AcDbPolyline
90
4
70
1
43
0.0
10
-54.515756068248109
20
-25.924362083723338
10
-54.515756068248109
20
-11.924027291384158
10
-40.51577116841051
20
-11.924027291384167
10
-40.51577116841051
20
-25.924362083723338
0
LWPOLYLINE
5
155
100
AcDbEntity
8
0
100
AcDbPolyline
90
4
70
1
43
0.0
10
-111.5193542338835
20
-54.673279474470355
10
-97.519369334045919
20
-54.673279474470355
10
-97.519369334045919
20
-68.673616958290296
10
-111.5193542338835
20
-68.673616958290296
0
SPLINE
5
156
100
AcDbEntity
8
0
100
AcDbSpline
70
4
71
3
72
8
73
4
74
0
42
0.000000001
43
0.0000000001
44
0.0000000001
40
0
40
0
40
0
40
0
40
1
40
1
40
1
40
1
41
1
41
1
41
1
41
1
10
-38.026079796394413
20
-30.649712463127837
30
0
10
-38.633563115549983
20
-30.649712463127837
30
0
10
-39.126040890772444
20
-30.157234729959779
30
0
10
-39.126040890772444
20
-29.549751368749817
30
0
0
SPLINE
5
157
100
AcDbEntity
8
0
100
AcDbSpline
70
4
71
3
72
8
73
4
74
0
42
0.000000001
43
0.0000000001
44
0.0000000001
40
0
40
0
40
0
40
0
40
1
40
1
40
1
40
1
41
1
41
1
41
1
41
1
10
-114.02608817417197
20
-53.149631622852027
30
0
10
-114.63357149332751
20
-53.149631622852027
30
0
10
-115.12604926854996
20
-52.657153889683968
30
0
10
-115.12604926854996
20
-52.049670528474046
30
0
0
LWPOLYLINE
5
158
100
AcDbEntity
8
0
100
AcDbPolyline
90
4
70
1
43
0.0
10
-21.514105256529959
20
-14.309152964177905
10
-21.514105256529959
20
-28.309137864015511
10
-35.514090156367573
20
-28.309137864015511
10
-35.514090156367573
20
-14.309152964177905
0
LWPOLYLINE
5
159
100
AcDbEntity
8
0
100
AcDbPolyline
90
4
70
1
43
0.0
10
-116.517509406103
20
-49.674419134286154
10
-130.5174943059406
20
-49.674419134286154
10
-130.5174943059406
20
-35.674078958985405
10
-116.517509406103
20
-35.67407895898539
0
LWPOLYLINE
5
160
100
AcDbEntity
8
0
100
AcDbPolyline
90
4
70
1
43
0.0
10
-59.517087187789485
20
-9.5498290305622646
10
-59.517087187789485
20
-23.549813930399871
10
-73.517072087627099
20
-23.549813930399871
10
-73.517072087627099
20
-9.5498290305622628
0
SPLINE
5
161
100
AcDbEntity
8
0
100
AcDbSpline
70
4
71
3
72
8
73
4
74
0
42
0.000000001
43
0.0000000001
44
0.0000000001
40
0
40
0
40
0
40
0
40
1
40
1
40
1
40
1
41
1
41
1
41
1
41
1
10
-36.926118702016417
20
-29.549751368749817
30
0
10
-36.926118702016417
20
-30.157234729959779
30
0
10
-37.418596477238886
20
-30.649712463127837
30
0
10
-38.026079796394413
20
-30.649712463127837
30
0
0
SPLINE
5
162
100
AcDbEntity
8
0
100
AcDbSpline
70
4
71
3
72
8
73
4
74
0
42
0.000000001
43
0.0000000001
44
0.0000000001
40
0
40
0
40
0
40
0
40
1
40
1
40
1
40
1
41
1
41
1
41
1
41
1
10
-115.12601400153899
20
-33.299426264242022
30
0
10
-115.12601400153899
20
-32.691942945086453
30
0
10
-114.63353626837092
20
-32.199465169864027
30
0
10
-114.02605290716099
20
-32.199465169864027
30
0
0
LWPOLYLINE
5
163
100
AcDbEntity
8
0
100
AcDbPolyline
90
4
70
1
43
0.0
10
-27.461690926135258
20
-74.342932395780977
10
-31.085071358808534
20
-87.865962677856388
10
-44.608101640883859
20
-84.242582245183101
10
-40.984721208210608
20
-70.71955196310779
0
SPLINE
5
164
100
AcDbEntity
8
0
100
AcDbSpline
70
4
71
3
72
8
73
4
74
0
42
0.000000001
43
0.0000000001
44
0.0000000001
40
0
40
0
40
0
40
0
40
1
40
1
40
1
40
1
41
1
41
1
41
1
41
1
10
-69.676066494378816
20
-69.299586208337274
30
0
10
-69.676066494378816
20
-69.907422321747106
30
0
10
-70.168544269601256
20
-70.399547302715249
30
0
10
-70.776027588756833
20
-70.399547302715249
30
0
0
LWPOLYLINE
5
165
100
AcDbEntity
8
0
100
AcDbPolyline
90
4
70
1
43
0.0
10
-21.514105256529959
20
-66.309301814897054
10
-35.514090156367573
20
-66.309301814897054
10
-35.514090156367573
20
-52.309314223578703
10
-21.514105256529959
20
-52.309314223578703
0
LWPOLYLINE
5
166
100
AcDbEntity
8
0
100
AcDbPolyline
90
4
70
1
43
0.0
10
-35.514090156367573
20
-33.309408540129077
10
-21.514105256529959
20
-33.309408540129084
10
-21.514105256529959
20
-47.309393439966662
10
-35.514090156367573
20
-47.309393439966662
0
SPLINE
5
167
100
AcDbEntity
8
0
100
AcDbSpline
70
4
71
3
72
8
73
4
74
0
42
0.000000001
43
0.0000000001
44
0.0000000001
40
0
40
0
40
0
40
0
40
1
40
1
40
1
40
1
41
1
41
1
41
1
41
1
10
-114.02608817417197
20
-50.949709434096029
30
0
10
-113.41860485501643
20
-50.949709434096029
30
0
10
-112.92612707979399
20
-51.442187209318462
30
0
10
-112.92612707979399
20
-52.049670528474046
30
0
0
SPLINE
5
168
100
AcDbEntity
8
0
100
AcDbSpline
70
4
71
3
72
8
73
4
74
0
42
0.000000001
43
0.0000000001
44
0.0000000001
40
0
40
0
40
0
40
0
40
1
40
1
40
1
40
1
41
1
41
1
41
1
41
1
10
-114.02605290716099
20
-32.199465169864027
30
0
10
-113.41856958800545
20
-32.199465169864027
30
0
10
-112.92609181278297
20
-32.691942945086453
30
0
10
-112.92609181278297
20
-33.299426264242022
30
0
0
LWPOLYLINE
5
169
100
AcDbEntity
8
0
100
AcDbPolyline
90
4
70
1
43
0.0
10
-92.518748765430757
20
-30.928863767625003
10
-78.518763865593144
20
-30.928863767625003
10
-78.518758482631569
20
-44.928848667462624
10
-92.518748765430757
20
-44.928848667462624
0
SPLINE
5
170
100
AcDbEntity
8
0
100
AcDbSpline
70
4
71
3
72
8
73
4
74
0
42
0.000000001
43
0.0000000001
44
0.0000000001
40
0
40
0
40
0
40
0
40
1
40
1
40
1
40
1
41
1
41
1
41
1
41
1
10
-115.12604926854996
20
-52.049670528474046
30
0
10
-115.12604926854996
20
-51.442187209318462
30
0
10
-114.63357149332751
20
-50.949709434096029
30
0
10
-114.02608817417197
20
-50.949709434096029
30
0
0
LWPOLYLINE
5
171
100
AcDbEntity
8
0
100
AcDbPolyline
90
4
70
1
43
0.0
10
-23.338918229894961
20
-85.594885089293342
10
-16.339101735532221
20
-73.470619387837587
10
-4.2144824407888537
20
-80.470435545765241
10
-11.214651855569034
20
-92.595054504073488
0
SPLINE
5
172
100
AcDbEntity
8
0
100
AcDbSpline
70
4
71
3
72
8
73
4
74
0
42
0.000000001
43
0.0000000001
44
0.0000000001
40
0
40
0
40
0
40
0
40
1
40
1
40
1
40
1
41
1
41
1
41
1
41
1
10
-70.776027588756833
20
-70.399547302715249
30
0
10
-71.383510907912381
20
-70.399547302715249
30
0
10
-71.875988683134835
20
-69.907422321747106
30
0
10
-71.875988683134835
20
-69.299586208337274
30
0
0
LWPOLYLINE
5
173
100
AcDbEntity
8
0
100
AcDbPolyline
90
4
70
1
43
0.0
10
-40.51577116841051
20
-63.924523343124129
10
-54.515756068248109
20
-63.924523343124129
10
-54.515756068248109
20
-49.924183167823415
10
-40.51577116841051
20
-49.924183167823408
0
SPLINE
5
174
100
AcDbEntity
8
0
100
AcDbSpline
70
4
71
3
72
8
73
4
74
0
42
0.000000001
43
0.0000000001
44
0.0000000001
40
0
40
0
40
0
40
0
40
1
40
1
40
1
40
1
41
1
41
1
41
1
41
1
10
-12.23199246374401
20
-98.338876292137854
30
0
10
-12.230934038926794
20
-98.337465199229527
30
0
10
-12.229875782327117
20
-98.335701312066917
30
0
10
-12.228817357509897
20
-98.334290177104208
30
0
0
SPLINE
5
175
100
AcDbEntity
8
0
100
AcDbSpline
70
4
71
3
72
8
73
4
74
0
42
0.000000001
43
0.0000000001
44
0.0000000001
40
0
40
0
40
0
40
0
40
1
40
1
40
1
40
1
41
1
41
1
41
1
41
1
10
-24.276213473474431
20
-75.949729364651105
30
0
10
-23.668730154318872
20
-75.949729364651105
30
0
10
-23.176252379096415
20
-76.442207139873503
30
0
10
-23.176252379096415
20
-77.049690459029122
30
0
0
LWPOLYLINE
5
176
100
AcDbEntity
8
0
100
AcDbPolyline
90
4
70
1
43
0.0
10
-63.997369159929541
20
-69.58237122074803
10
-49.997384260091955
20
-69.58237122074803
10
-49.997384260091955
20
-83.582358812066417
10
-63.997369159929541
20
-83.582358812066417
0
SPLINE
5
177
100
AcDbEntity
8
0
100
AcDbSpline
70
4
71
3
72
8
73
4
74
0
42
0.000000001
43
0.0000000001
44
0.0000000001
40
0
40
0
40
0
40
0
40
1
40
1
40
1
40
1
41
1
41
1
41
1
41
1
10
-39.126040890772444
20
-29.549751368749817
30
0
10
-39.126040890772444
20
-28.942268049594269
30
0
10
-38.633563115549983
20
-28.449790274371818
30
0
10
-38.026079796394413
20
-28.449790274371818
30
0
0
SPLINE
5
178
100
AcDbEntity
8
0
100
AcDbSpline
70
4
71
3
72
8
73
4
74
0
42
0.000000001
43
0.0000000001
44
0.0000000001
40
0
40
0
40
0
40
0
40
1
40
1
40
1
40
1
41
1
41
1
41
1
41
1
10
-112.92609181278297
20
-33.299426264242022
30
0
10
-112.92609181278297
20
-33.907262377651854
30
0
10
-113.41856958800545
20
-34.399387358620039
30
0
10
-114.02605290716099
20
-34.399387358620039
30
0
0
SPLINE
5
179
100
AcDbEntity
8
0
100
AcDbSpline
70
4
71
3
72
8
73
4
74
0
42
0.000000001
43
0.0000000001
44
0.0000000001
40
0
40
0
40
0
40
0
40
1
40
1
40
1
40
1
41
1
41
1
41
1
41
1
10
-24.276213473474431
20
-78.149651553407054
30
0
10
-24.883696792629983
20
-78.149651553407054
30
0
10
-25.376174567852438
20
-77.657173820239024
30
0
10
-25.376174567852438
20
-77.049690459029122
30
0
0
LWPOLYLINE
5
180
100
AcDbEntity
8
0
100
AcDbPolyline
90
4
70
1
43
0.0
10
-59.517087187789485
20
-28.54973471401188
10
-59.517087187789485
20
-42.54971961384949
10
-73.517072087627099
20
-42.54971961384949
10
-73.517072087627099
20
-28.54973471401188
0
SPLINE
5
181
100
AcDbEntity
8
0
100
AcDbSpline
70
4
71
3
72
8
73
4
74
0
42
0.000000001
43
0.0000000001
44
0.0000000001
40
0
40
0
40
0
40
0
40
1
40
1
40
1
40
1
41
1
41
1
41
1
41
1
10
-23.176252379096415
20
-77.049690459029122
30
0
10
-23.176252379096415
20
-77.657173820239024
30
0
10
-23.668730154318872
20
-78.149651553407054
30
0
10
-24.276213473474431
20
-78.149651553407054
30
0
0
SPLINE
5
182
100
AcDbEntity
8
0
100
AcDbSpline
70
4
71
3
72
8
73
4
74
0
42
0.000000001
43
0.0000000001
44
0.0000000001
40
0
40
0
40
0
40
0
40
1
40
1
40
1
40
1
41
1
41
1
41
1
41
1
10
-25.376174567852438
20
-77.049690459029122
30
0
10
-25.376174567852438
20
-76.442207139873503
30
0
10
-24.883696792629983
20
-75.949729364651105
30
0
10
-24.276213473474431
20
-75.949729364651105
30
0
0
LWPOLYLINE
5
183
100
AcDbEntity
8
0
100
AcDbPolyline
90
4
70
1
43
0.0
10
-73.517072087627099
20
-47.549990289963027
10
-59.517087187789485
20
-47.549990289963034
10
-59.517087187789485
20
-61.549975189800641
10
-73.517072087627099
20
-61.549975189800641
0
LWPOLYLINE
5
184
100
AcDbEntity
8
0
100
AcDbPolyline
90
4
70
1
43
0.0
10
-97.519369334045919
20
-49.673713966321465
10
-111.5193542338835
20
-49.673713966321465
10
-111.5193542338835
20
-35.673373791020715
10
-97.519369334045919
20
-35.673373791020715
0
SPLINE
5
185
100
AcDbEntity
8
0
100
AcDbSpline
70
4
71
3
72
8
73
4
74
0
42
0.000000001
43
0.0000000001
44
0.0000000001
40
0
40
0
40
0
40
0
40
1
40
1
40
1
40
1
41
1
41
1
41
1
41
1
10
-70.776027588756833
20
-68.199625113959257
30
0
10
-70.168544269601256
20
-68.199625113959257
30
0
10
-69.676066494378816
20
-68.692102889181683
30
0
10
-69.676066494378816
20
-69.299586208337274
30
0
0
LINE
5
186
100
AcDbEntity
8
0
100
AcDbLine
10
-94.526332253263774
20
-14.053070614776592
30
0
11
-94.526332253263774
21
-14.052717862576696
31
0
0
SPLINE
5
187
100
AcDbEntity
8
0
100
AcDbSpline
70
4
71
3
72
8
73
4
74
0
42
0.000000001
43
0.0000000001
44
0.0000000001
40
0
40
0
40
0
40
0
40
1
40
1
40
1
40
1
41
1
41
1
41
1
41
1
10
-38.026079796394413
20
-28.449790274371818
30
0
10
-37.418596477238886
20
-28.449790274371818
30
0
10
-36.926118702016417
20
-28.942268049594269
30
0
10
-36.926118702016417
20
-29.549751368749817
30
0
0
ENDSEC
0
SECTION
2
OBJECTS
0
DICTIONARY
5
C
100
AcDbDictionary
3
ACAD_GROUP
350
D
3
ACAD_MLINESTYLE
350
17
0
DICTIONARY
5
D
100
AcDbDictionary
0
DICTIONARY
5
1A
330
C
100
AcDbDictionary
0
DICTIONARY
5
17
100
AcDbDictionary
0
ENDSEC
0
EOF
